<svg xmlns="http://www.w3.org/2000/svg"><symbol viewBox="0 0 14 16" id="sprite-icon-bookmark"><path d="M14 15c0 .55-.368.741-.818.426l-5.363-3.765c-.45-.315-1.187-.315-1.637 0L.818 15.426C.368 15.741 0 15.55 0 15V1c0-.55.45-1 1-1h12c.55 0 1 .45 1 1v14z"/></symbol><symbol viewBox="0 0 15 15" id="sprite-icon-cart"><circle cx="4.5" cy="13.5" r="1.5"/><circle cx="12.5" cy="13.5" r="1.5"/><path d="M15 2H4.07l-.422-2H0v2h2.031l1.985 9H15V9H9.441L15 6.951z"/></symbol><symbol viewBox="0 0 11 10" id="sprite-icon-down-dir"><path d="M5.5 10L0 0h11"/></symbol><symbol viewBox="0 0 12 22" id="sprite-icon-fb"><path fill="#FFF" d="M12 4V0H8a4 4 0 0 0-4 4v4H0v4h4v10h4V12h4V8H8V4h4z"/></symbol><symbol viewBox="0 0 15 12" id="sprite-icon-home"><g fill="#C1C6CE"><path d="M3 8v4h4V8h2v4h4V8L8 3.516z"/><path d="M14.831 6.365L13 4.751V0h-2v2.987L8.332.635c-.02-.017-.043-.023-.064-.037a.465.465 0 0 0-.08-.047.551.551 0 0 0-.095-.024C8.062.521 8.032.515 8 .515c-.031 0-.061.006-.092.012a.46.46 0 0 0-.095.025c-.028.011-.053.029-.08.046-.021.014-.045.02-.064.037l-6.498 5.73a.501.501 0 0 0 .33.875.497.497 0 0 0 .331-.125L8 1.677l6.169 5.438a.501.501 0 0 0 .662-.75z"/></g></symbol><symbol viewBox="0 0 21 21" id="sprite-icon-insta"><path fill="#FFF" d="M18 0H3C1.35 0 0 1.35 0 3v15c0 1.65 1.35 3 3 3h15c1.65 0 3-1.35 3-3V3c0-1.65-1.35-3-3-3zm-7.5 7c1.93 0 3.5 1.57 3.5 3.5S12.43 14 10.5 14 7 12.43 7 10.5 8.57 7 10.5 7zM18 18H3V9h1.181A6.504 6.504 0 0 0 4 10.5a6.5 6.5 0 1 0 13 0 6.45 6.45 0 0 0-.181-1.5H18v9zm0-11h-4V3h4v4z"/></symbol><symbol viewBox="0 0 20 17" id="sprite-icon-login"><path d="M14.875 8.5L6 0v6H0v5h6v6z"/><path d="M16.986 15.01h-5.027V17h5.027c2.178 0 3.004-1.81 3.029-3.026V3.028C19.99 1.811 19.164 0 16.986 0h-5.027v1.99h5.027c.839 0 .992.681 1.01 1.057v10.904c-.017.376-.171 1.059-1.01 1.059z"/></symbol><symbol viewBox="0 0 21 17" id="sprite-icon-logout"><g fill="#c5c5c5"><path fill="#c5c5c5" d="M21 8.5L12.125 0v6h-6v5h6v6z"/><path fill="#c5c5c5" d="M3.106 13.952V3.048c.018-.376.171-1.057 1.01-1.057h5.027V0H4.116C1.938 0 1.112 1.81 1.087 3.027v10.946C1.112 15.189 1.938 17 4.116 17h5.027v-1.99H4.116c-.839 0-.992-.683-1.01-1.058z"/></g></symbol><symbol viewBox="0 0 19 19" id="sprite-icon-phone"><path fill="#B7BFC8" d="M15.572 18.985h-.941c-4.129-.488-7.157-2.408-9.359-4.864C3.062 11.66 1.318 8.492.978 4.228V3.084c.078-.774.459-1.304.898-1.757C2.425.766 3.25.044 4.002.019c.554-.018 1.5.38 1.879.899.329.446.504 1.339.656 2.003.154.671.505 1.643.408 2.289-.148 1.007-1.487 1.434-1.879 2.166 1.307 3.135 3.443 5.439 6.293 7.031.715-.392 1.346-1.572 2.332-1.595.359-.009.818.178 1.184.286.402.121.75.275 1.104.408.596.224 1.648.521 2.004 1.021.365.513.57 1.356.49 1.879-.164 1.041-1.879 2.197-2.901 2.579z"/></symbol><symbol viewBox="0 0 17 17" id="sprite-icon-search"><path d="M17 15.586l-3.542-3.542A7.465 7.465 0 0 0 15 7.5 7.5 7.5 0 1 0 7.5 15c1.71 0 3.282-.579 4.544-1.542L15.586 17 17 15.586zM2 7.5C2 4.467 4.467 2 7.5 2 10.532 2 13 4.467 13 7.5c0 3.032-2.468 5.5-5.5 5.5A5.506 5.506 0 0 1 2 7.5z"/></symbol><symbol viewBox="0 0 11 10" id="sprite-icon-up-dir"><path d="M5.5 0L0 10h11z"/></symbol><symbol viewBox="0 0 20 18" id="sprite-icon-user"><path fill="#c5c5c5" d="M17.881 14.166c-2.144-.735-4.256-1.666-5.207-2.39-.657-.501-.77-1.618-.517-2.415 1.118-.903 1.864-2.477 1.864-4.278C14.021 2.276 12.221 0 10 0S5.979 2.276 5.979 5.083c0 1.801.746 3.374 1.863 4.277.253.798.141 1.915-.517 2.416-.95.724-3.063 1.654-5.207 2.39S0 18 0 18h20s.025-3.099-2.119-3.834z"/></symbol><symbol viewBox="0 0 26 15" id="sprite-icon-vk"><path fill="#FFF" d="M16.138 11.51c.956-.309 2.18 2.04 3.483 2.939.978.681 1.727.534 1.727.534l3.473-.05s1.815-.112.957-1.554c-.071-.12-.503-1.069-2.585-3.022-2.177-2.043-1.882-1.712.739-5.244 1.597-2.153 2.236-3.468 2.036-4.028-.192-.539-1.365-.399-1.365-.399L20.69.713c-.381.001-.704.119-.851.515-.003.004-.621 1.666-1.445 3.079-1.741 2.989-2.436 3.148-2.724 2.961-.661-.433-.494-1.737-.494-2.664 0-2.897.432-4.105-.846-4.417-.427-.104-.739-.172-1.828-.182-1.392-.021-2.574 0-3.244.329-.445.223-.786.712-.579.74.26.035.843.16 1.155.586.401.552.389 1.789.389 1.789s.229 3.411-.54 3.834c-.528.29-1.25-.302-2.803-3.016-.793-1.388-1.392-2.922-1.392-2.922s-.116-.285-.326-.441c-.25-.185-.6-.244-.6-.244L.848.684S.29.7.085.946c-.182.218-.015.668-.015.668s2.909 6.881 6.203 10.347c3.02 3.182 6.452 2.971 6.452 2.971h1.555s.469-.054.709-.312c.224-.24.214-.691.214-.691s-.031-2.109.935-2.419z"/></symbol></svg>