<svg xmlns="http://www.w3.org/2000/svg"><symbol viewBox="0 0 44 65" id="sprite-icon-1"><g fill="#FFF"><path d="M37.91 30.438v10.869s.105 2.735-2.825 2.735c-3.069 0-3.125-2.735-3.125-2.735v-6.416c0-.24-.336-1.909-2.319-1.909-2.625 0-2.67 1.877-2.67 1.877V54.08s.029 1.863-2.464 1.863C22 55.943 22 53.96 22 53.96V40.016s0-2.945-3.805-2.945c-4.054 0-3.967 3.125-3.967 3.125v3.728s-.121 2.945-4.688 2.945-4.628-4.509-4.628-4.509V29.938C3.168 28.976 0 26.671 0 26.671v29.332S2.988 65 22 65s22-8.695 22-8.695V26.671c-2.938 2.829-6.09 3.767-6.09 3.767z"/><path d="M22 0C1.688 0 0 19.875 0 19.875v3.062C8.438 29.188 22 29 22 29s13.562.188 22-6.062v-3.062C44 19.875 42.312 0 22 0zm0 25c-11.75 0-14.312-2.375-14.312-2.375C13.938 19.75 22 19.875 22 19.875s8.062-.125 14.312 2.75c0 0-2.562 2.375-14.312 2.375zm0-12.375c-9.562 0-17.688 2.938-17.688 2.938C8.875 2.625 22 3.062 22 3.062s13.125-.438 17.688 12.5c0 0-8.126-2.937-17.688-2.937z"/></g></symbol><symbol viewBox="0 0 75 61" id="sprite-icon-2"><g fill="#FFF"><path d="M5.039 58.949S5.039 61 6.907 61h27.02s2.001-.184 2.001-1.984V47.942H5.039v11.007zM73.875 8.016H60.387c-.621-2.287-2.071-3.891-3.762-3.891h-7.542v12.75h7.542c1.69 0 3.141-1.604 3.762-3.891h13.488c.575 0 1.042-1.112 1.042-2.484s-.467-2.484-1.042-2.484zM2.103 0C.167 0 0 2.041 0 2.041v15.812c0 2.936 2.903 3.002 2.903 3.002h9.007c1.935 0 1.601 1.334 1.601 1.334s-2.469 13.01-2.735 15.211c-.267 2.203-1.868 3.604-1.868 3.604s-2.135 1.201-3.002 1.668-.867 2.201-.867 2.201h30.889v-.734c0-1.467-6.472-3.135-9.073-3.402-2.602-.266-2.068-2.002-2.068-2.002l1.067-7.805h3.002l1.134-7.873h-3.002l.331-2.737 8.609-.131c5.805-.601 10.008-4.07 10.008-4.07V4.109C41.333.84 33.993 0 33.993 0H2.103zM36 4.938v.031c0 .55-.45 1-1 1H5.031c-.55 0-1-.45-1-1v-.031c0-.55.45-1 1-1H35c.55 0 1 .45 1 1z"/></g></symbol><symbol viewBox="0 0 78 62" id="sprite-icon-3"><g fill="#FFF"><path d="M16.125 29.749C7.22 29.749 0 36.968 0 45.875 0 54.78 7.22 62 16.125 62S32.25 54.78 32.25 45.875c.001-8.907-7.219-16.126-16.125-16.126zm0 23.433a7.306 7.306 0 0 1-7.307-7.307 7.307 7.307 0 1 1 14.614 0 7.306 7.306 0 0 1-7.307 7.307zM60.854 45.874a8.062 8.062 0 0 0-8.062 8.062 8.062 8.062 0 1 0 16.124 0 8.06 8.06 0 0 0-8.062-8.062zm0 13.126a5.063 5.063 0 1 1 .002-10.126A5.063 5.063 0 0 1 60.854 59z"/><path d="M77.898 49.727s-2.023-15.102-2.461-18.414c-.547-4.141-3.625-4.688-3.625-4.688L66 25.946V14h-3v5.833h-4v5.295L47.188 23.75S37.438 3.688 36.626 1.875 33.5 0 33.5 0 11.125 2.375 8.75 3 5.312 6.167 5.312 6.167c-2.308 6.37-2.311 17.296-2.266 20.255a23.328 23.328 0 0 1 13.079-3.986c12.944 0 23.438 10.493 23.438 23.439 0 2.438-.373 4.789-1.064 7h10.164c.39-6.402 5.69-11.479 12.191-11.479s11.802 5.077 12.191 11.479H75c3.641 0 2.898-3.148 2.898-3.148zM23.083 19.833h-6.958V6.167h6.958v13.666zm10 0h-6.958V6.167h6.958v13.666zM53.016 36H49v-7h4.016v7zm7 0H56v-7h4.016v7zm7 0H63v-7h4.016v7z"/></g></symbol><symbol viewBox="0 0 59 72" id="sprite-icon-4"><g fill="#FFF"><path d="M58.34 20.545a2.997 2.997 0 0 0-2.396-1.195h-38.67l-2.475-7.385H3.058a3 3 0 1 0 0 6h7.424l13.5 40.285h25.159a3 3 0 1 0 0-6H28.299l-1.726-5.149h23.12a3.001 3.001 0 0 0 2.884-2.172l6.25-21.75a3.005 3.005 0 0 0-.487-2.634zm-7.781 9.681h-4.81V25.35h6.211l-1.401 4.876zm-17.617 0V25.35h6.807v4.875h-6.807zm6.807 6v4.875h-6.807v-4.875h6.807zM26.942 25.35v4.875h-6.023l-1.634-4.875h7.657zm-4.013 10.876h4.013v4.875h-2.379l-1.634-4.875zm22.82 4.875v-4.875h3.086l-1.401 4.875h-1.685z"/><circle cx="27.406" cy="66.094" r="5.781"/><circle cx="44.844" cy="66.094" r="5.781"/><path d="M29.335 9.699l7.547 5.492a1.986 1.986 0 0 0 2.818-.494c.646-.936.43-2.232-.48-2.895l-2.373-1.726 9.436-5.09L50.911 17h4.347L49.214 1.309A2.051 2.051 0 0 0 48.037.126a1.97 1.97 0 0 0-1.643.109L33.146 7.382l-3.022-2.199a1.986 1.986 0 0 0-2.742.39l-8.481 10.798a2.176 2.176 0 0 0-.405.628h5.106l5.733-7.3z"/></g></symbol><symbol viewBox="0 0 78 63" id="sprite-icon-5"><g fill="#FFF"><circle cx="25.983" cy="55.5" r="7.5"/><circle cx="59.982" cy="55.5" r="7.5"/><path d="M64 0H11.062c-3.188 0-3 3.125-3 3.125V8H3.469a3.469 3.469 0 1 0 0 6.938l28.085 1.84.196.043c-.761 3.197-8.938 3.805-8.938 3.805l-8.31.428H5.446a3.375 3.375 0 1 0 0 6.75l23.656 1.254c-.807 3.153-6.29 3.756-6.29 3.756l-14.751.76v15.615c0 3.188 2.564 3.812 2.564 3.812h2.099c1.173-6.261 6.659-11 13.259-11s12.085 4.739 13.259 11h7.404c1.174-6.261 6.66-11 13.26-11 6.601 0 12.086 4.739 13.26 11h1.709C77.812 53 78 48.938 78 48.938v-15.25C78 14.812 64 0 64 0zM52 23.938v-15h10.062l5.75 15H52z"/></g></symbol><symbol viewBox="0 0 14 16" id="sprite-icon-bookmark"><path fill="#ffffff" d="M14 15c0 .55-.368.741-.818.426l-5.363-3.765c-.45-.315-1.187-.315-1.637 0L.818 15.426C.368 15.741 0 15.55 0 15V1c0-.55.45-1 1-1h12c.55 0 1 .45 1 1v14z"/></symbol><symbol viewBox="0 0 15 15" id="sprite-icon-cart"><circle fill="#ffffff" cx="4.5" cy="13.5" r="1.5"/><circle fill="#ffffff" cx="12.5" cy="13.5" r="1.5"/><path fill="#ffffff" d="M15 2H4.07l-.422-2H0v2h2.031l1.985 9H15V9H9.441L15 6.951z"/></symbol><symbol viewBox="0 0 12 22" id="sprite-icon-fb"><path fill="#FFF" d="M12 4V0H8a4 4 0 0 0-4 4v4H0v4h4v10h4V12h4V8H8V4h4z"/></symbol><symbol viewBox="0 0 15 12" id="sprite-icon-home"><g fill="#C1C6CE"><path d="M3 8v4h4V8h2v4h4V8L8 3.516z"/><path d="M14.831 6.365L13 4.751V0h-2v2.987L8.332.635c-.02-.017-.043-.023-.064-.037a.465.465 0 0 0-.08-.047.551.551 0 0 0-.095-.024C8.062.521 8.032.515 8 .515c-.031 0-.061.006-.092.012a.46.46 0 0 0-.095.025c-.028.011-.053.029-.08.046-.021.014-.045.02-.064.037l-6.498 5.73a.501.501 0 0 0 .33.875.497.497 0 0 0 .331-.125L8 1.677l6.169 5.438a.501.501 0 0 0 .662-.75z"/></g></symbol><symbol viewBox="0 0 21 21" id="sprite-icon-insta"><path fill="#FFF" d="M18 0H3C1.35 0 0 1.35 0 3v15c0 1.65 1.35 3 3 3h15c1.65 0 3-1.35 3-3V3c0-1.65-1.35-3-3-3zm-7.5 7c1.93 0 3.5 1.57 3.5 3.5S12.43 14 10.5 14 7 12.43 7 10.5 8.57 7 10.5 7zM18 18H3V9h1.181A6.504 6.504 0 0 0 4 10.5a6.5 6.5 0 1 0 13 0 6.45 6.45 0 0 0-.181-1.5H18v9zm0-11h-4V3h4v4z"/></symbol><symbol viewBox="0 0 20 17" id="sprite-icon-login"><path fill="#c5c5c5" d="M14.875 8.5L6 0v6H0v5h6v6z"/><path fill="#c5c5c5" d="M16.986 15.01h-5.027V17h5.027c2.178 0 3.004-1.81 3.029-3.026V3.028C19.99 1.811 19.164 0 16.986 0h-5.027v1.99h5.027c.839 0 .992.681 1.01 1.057v10.904c-.017.376-.171 1.059-1.01 1.059z"/></symbol><symbol viewBox="0 0 21 17" id="sprite-icon-logout"><g fill="#c5c5c5"><path fill="#c5c5c5" d="M21 8.5L12.125 0v6h-6v5h6v6z"/><path fill="#c5c5c5" d="M3.106 13.952V3.048c.018-.376.171-1.057 1.01-1.057h5.027V0H4.116C1.938 0 1.112 1.81 1.087 3.027v10.946C1.112 15.189 1.938 17 4.116 17h5.027v-1.99H4.116c-.839 0-.992-.683-1.01-1.058z"/></g></symbol><symbol viewBox="0 0 17 17" id="sprite-icon-search"><path fill="#ffffff" d="M17 15.586l-3.542-3.542A7.465 7.465 0 0 0 15 7.5 7.5 7.5 0 1 0 7.5 15c1.71 0 3.282-.579 4.544-1.542L15.586 17 17 15.586zM2 7.5C2 4.467 4.467 2 7.5 2 10.532 2 13 4.467 13 7.5c0 3.032-2.468 5.5-5.5 5.5A5.506 5.506 0 0 1 2 7.5z"/></symbol><symbol viewBox="0 0 20 18" id="sprite-icon-user"><path fill="#c5c5c5" d="M17.881 14.166c-2.144-.735-4.256-1.666-5.207-2.39-.657-.501-.77-1.618-.517-2.415 1.118-.903 1.864-2.477 1.864-4.278C14.021 2.276 12.221 0 10 0S5.979 2.276 5.979 5.083c0 1.801.746 3.374 1.863 4.277.253.798.141 1.915-.517 2.416-.95.724-3.063 1.654-5.207 2.39S0 18 0 18h20s.025-3.099-2.119-3.834z"/></symbol><symbol viewBox="0 0 26 15" id="sprite-icon-vk"><path fill="#FFF" d="M16.138 11.51c.956-.309 2.18 2.04 3.483 2.939.978.681 1.727.534 1.727.534l3.473-.05s1.815-.112.957-1.554c-.071-.12-.503-1.069-2.585-3.022-2.177-2.043-1.882-1.712.739-5.244 1.597-2.153 2.236-3.468 2.036-4.028-.192-.539-1.365-.399-1.365-.399L20.69.713c-.381.001-.704.119-.851.515-.003.004-.621 1.666-1.445 3.079-1.741 2.989-2.436 3.148-2.724 2.961-.661-.433-.494-1.737-.494-2.664 0-2.897.432-4.105-.846-4.417-.427-.104-.739-.172-1.828-.182-1.392-.021-2.574 0-3.244.329-.445.223-.786.712-.579.74.26.035.843.16 1.155.586.401.552.389 1.789.389 1.789s.229 3.411-.54 3.834c-.528.29-1.25-.302-2.803-3.016-.793-1.388-1.392-2.922-1.392-2.922s-.116-.285-.326-.441c-.25-.185-.6-.244-.6-.244L.848.684S.29.7.085.946c-.182.218-.015.668-.015.668s2.909 6.881 6.203 10.347c3.02 3.182 6.452 2.971 6.452 2.971h1.555s.469-.054.709-.312c.224-.24.214-.691.214-.691s-.031-2.109.935-2.419z"/></symbol><symbol viewBox="0 0 141 38" id="sprite-red-button"><path fill="#EE3643" d="M121.632 0H3C1.35 0 0 1.35 0 3v32c0 1.65 1.35 3 3 3h118.632L141 19 121.632 0z"/></symbol></svg>